<svg width="14" height="10" viewBox="0 0 14 10" fill="none" xmlns="http://www.w3.org/2000/svg">
<path d="M0.602376 1.70715L6.99997 4.90555L13.3976 1.70715C13.3739 1.29951 13.1952 0.916342 12.8982 0.636133C12.6012 0.355924 12.2083 0.199876 11.8 0.199951H2.19998C1.79164 0.199876 1.39873 0.355924 1.10172 0.636133C0.804702 0.916342 0.626059 1.29951 0.602376 1.70715Z" fill="#6366F1"/>
<path d="M13.4 3.49435L6.99997 6.69435L0.599976 3.49435V8.19995C0.599976 8.6243 0.768546 9.03127 1.0686 9.33132C1.36866 9.63138 1.77563 9.79995 2.19998 9.79995H11.8C12.2243 9.79995 12.6313 9.63138 12.9313 9.33132C13.2314 9.03127 13.4 8.6243 13.4 8.19995V3.49435Z" fill="#6366F1"/>
</svg>
